# xmcd CD database file generated by OrangeCD 6.3
#
# Track frame offsets:
#	150
#	18245
#	33030
#	50627
#	66915
#	83560
#	96965
#	109600
#	124570
#	143995
#
# Disc length: 2102 seconds
#
# Revision: 0
# Processed by: cddbd v1.5.2PL0 Copyright (c) Steve Scherf et al.
# Submitted via: OrangeCD 6.3
#
DISCID=7a08340a
DTITLE=Hjerterknekt - Ny Morgen - Ny Dag
DYEAR=1996
DGENRE=Country
TTITLE0=Soloppgang
TTITLE1=Slipp Meg Inn
TTITLE2=Veien Hjem
TTITLE3=Ikke Gå
TTITLE4=Fri Mann
TTITLE5=Vinter Aleine
TTITLE6=Brenner I Mitt Brøst
TTITLE7=Ta Meg Med
TTITLE8=Snøfall
TTITLE9=Ny Morgen, Ny Dag
EXTD=
EXTT0=
EXTT1=
EXTT2=
EXTT3=
EXTT4=
EXTT5=
EXTT6=
EXTT7=
EXTT8=
EXTT9=
PLAYORDER=
